AdventPro-bld_it.ufo
<glyph name="exclam" format="2">
  <advance width="195" height="962"/>
  <unicode hex="0021"/>
  <outline>
    <contour>
      <point x="176" y="642" type="line"/>
      <point x="186" y="689"/>
      <point x="209" y="710"/>
      <point x="246" y="710" type="curve" smooth="yes"/>
      <point x="287" y="710"/>
      <point x="302" y="688"/>
      <point x="292" y="643" type="curve"/>
      <point x="159" y="121" type="line"/>
      <point x="83" y="121" type="line"/>
    </contour>
    <contour>
      <point x="120" y="106" type="curve" smooth="yes"/>
      <point x="153" y="106"/>
      <point x="173" y="79"/>
      <point x="166" y="45" type="curve" smooth="yes"/>
      <point x="159" y="12"/>
      <point x="128" y="-15"/>
      <point x="95" y="-15" type="curve" smooth="yes"/>
      <point x="62" y="-15"/>
      <point x="41" y="12"/>
      <point x="48" y="45" type="curve" smooth="yes"/>
      <point x="55" y="79"/>
      <point x="88" y="106"/>
    </contour>
  </outline>
</glyph>
<glyph name="percent" format="2">
  <advance width="730" height="962"/>
  <unicode hex="0025"/>
  <outline>
    <contour>
      <point x="29" y="0" type="line"/>
      <point x="717" y="700" type="line"/>
      <point x="847" y="700" type="line"/>
      <point x="157" y="0" type="line"/>
    </contour>
    <contour>
      <point x="340" y="715" type="curve" smooth="yes"/>
      <point x="419" y="715"/>
      <point x="471" y="650"/>
      <point x="454" y="570" type="curve" smooth="yes"/>
      <point x="437" y="489"/>
      <point x="356" y="423"/>
      <point x="278" y="423" type="curve" smooth="yes"/>
      <point x="197" y="423"/>
      <point x="145" y="489"/>
      <point x="162" y="570" type="curve" smooth="yes"/>
      <point x="179" y="650"/>
      <point x="259" y="715"/>
    </contour>
    <contour>
      <point x="323" y="622" type="curve" smooth="yes"/>
      <point x="293" y="622"/>
      <point x="264.418" y="598.139"/>
      <point x="258" y="570" type="curve" smooth="yes"/>
      <point x="251.415" y="541.127"/>
      <point x="263" y="517"/>
      <point x="294" y="517" type="curve" smooth="yes"/>
      <point x="321" y="517"/>
      <point x="351.899" y="541.021"/>
      <point x="358" y="570" type="curve" smooth="yes"/>
      <point x="363.899" y="598.021"/>
      <point x="350" y="622"/>
    </contour>
    <contour>
      <point x="608" y="278" type="curve" smooth="yes"/>
      <point x="688" y="278"/>
      <point x="739" y="213"/>
      <point x="722" y="132" type="curve" smooth="yes"/>
      <point x="705" y="51"/>
      <point x="626" y="-14"/>
      <point x="546" y="-14" type="curve" smooth="yes"/>
      <point x="465" y="-14"/>
      <point x="413" y="51"/>
      <point x="430" y="132" type="curve" smooth="yes"/>
      <point x="447" y="213"/>
      <point x="527" y="278"/>
    </contour>
    <contour>
      <point x="591" y="185" type="curve" smooth="yes"/>
      <point x="563" y="185"/>
      <point x="533.293" y="158.944"/>
      <point x="528" y="132" type="curve" smooth="yes"/>
      <point x="522.292" y="102.941"/>
      <point x="534" y="79"/>
      <point x="563" y="79" type="curve" smooth="yes"/>
      <point x="590" y="79"/>
      <point x="618.795" y="103.043"/>
      <point x="625" y="132" type="curve" smooth="yes"/>
      <point x="630.795" y="159.045"/>
      <point x="619" y="185"/>
    </contour>
  </outline>
</glyph>
<glyph name="quotesingle" format="2">
  <advance width="149"/>
  <unicode hex="0027"/>
  <outline>
    <contour>
      <point x="176" y="696" type="line"/>
      <point x="188" y="753"/>
      <point x="279" y="754"/>
      <point x="266" y="696" type="curve"/>
      <point x="230" y="589" type="line"/>
      <point x="168" y="589" type="line"/>
    </contour>
  </outline>
</glyph>
<glyph name="asterisk" format="2">
  <advance width="382"/>
  <unicode hex="002A"/>
  <outline>
    <contour>
      <point x="205" y="655" type="line"/>
      <point x="288" y="588" type="line"/>
      <point x="279" y="700" type="line"/>
      <point x="399" y="700" type="line"/>
      <point x="341" y="588" type="line"/>
      <point x="449" y="656" type="line"/>
      <point x="471" y="551" type="line"/>
      <point x="348" y="541" type="line"/>
      <point x="428" y="466" type="line"/>
      <point x="311" y="397" type="line"/>
      <point x="299" y="516" type="line"/>
      <point x="235" y="397" type="line"/>
      <point x="152" y="468" type="line"/>
      <point x="259" y="542" type="line"/>
      <point x="144" y="552" type="line"/>
    </contour>
  </outline>
</glyph>
<glyph name="comma" format="2">
  <advance width="188"/>
  <unicode hex="002C"/>
  <outline>
    <contour>
      <point x="47" y="-66" type="line"/>
      <point x="62" y="-48"/>
      <point x="69" y="-28"/>
      <point x="78" y="-8" type="curve"/>
      <point x="52" y="-2"/>
      <point x="39" y="22"/>
      <point x="45" y="50" type="curve" smooth="yes"/>
      <point x="52" y="82"/>
      <point x="84" y="110"/>
      <point x="118" y="110" type="curve" smooth="yes"/>
      <point x="150" y="110"/>
      <point x="170" y="82"/>
      <point x="163" y="50" type="curve" smooth="yes"/>
      <point x="146" y="-41"/>
      <point x="66" y="-83"/>
      <point x="68" y="-83" type="curve"/>
    </contour>
  </outline>
</glyph>
<glyph name="five" format="2">
  <advance width="445"/>
  <unicode hex="0035"/>
  <outline>
    <contour>
      <point x="274" y="412" type="line"/>
      <point x="284" y="412" type="line" smooth="yes"/>
      <point x="433" y="412"/>
      <point x="482" y="313"/>
      <point x="458" y="200" type="curve" smooth="yes"/>
      <point x="438" y="108"/>
      <point x="341" y="-12"/>
      <point x="200" y="-12" type="curve" smooth="yes"/>
      <point x="99" y="-12"/>
      <point x="29" y="44"/>
      <point x="29" y="42" type="curve"/>
      <point x="89" y="138" type="line"/>
      <point x="89" y="139"/>
      <point x="135" y="98"/>
      <point x="221" y="98" type="curve" smooth="yes"/>
      <point x="290" y="98"/>
      <point x="337" y="146"/>
      <point x="350" y="205" type="curve" smooth="yes"/>
      <point x="366" y="282"/>
      <point x="322" y="311"/>
      <point x="236" y="311" type="curve" smooth="yes"/>
      <point x="136" y="311" type="line"/>
      <point x="241" y="700" type="line"/>
      <point x="508" y="700" type="line"/>
      <point x="485" y="590" type="line"/>
      <point x="320" y="590" type="line"/>
    </contour>
  </outline>
</glyph>
<glyph name="seven" format="2">
  <advance width="466" height="962"/>
  <unicode hex="0037"/>
  <outline>
    <contour>
      <point x="149" y="0" type="line"/>
      <point x="27" y="0" type="line"/>
      <point x="443" y="590" type="line"/>
      <point x="174" y="590" type="line"/>
      <point x="197" y="700" type="line"/>
      <point x="591" y="700" type="line"/>
      <point x="568" y="590" type="line"/>
    </contour>
  </outline>
</glyph>
<glyph name="colon" format="1">
  <advance width="197" height="962"/>
  <unicode hex="003A"/>
  <outline>
    <contour>
      <point x="188" y="144" type="curve" smooth="yes"/>
      <point x="181" y="110"/>
      <point x="148" y="84"/>
      <point x="115" y="84" type="curve" smooth="yes"/>
      <point x="81" y="84"/>
      <point x="62" y="110"/>
      <point x="69" y="144" type="curve" smooth="yes"/>
      <point x="76" y="177"/>
      <point x="107" y="205"/>
      <point x="140" y="205" type="curve" smooth="yes"/>
      <point x="173" y="205"/>
      <point x="195" y="177"/>
    </contour>
    <contour>
      <point x="240" y="386" type="curve" smooth="yes"/>
      <point x="232" y="353"/>
      <point x="199" y="325"/>
      <point x="166" y="325" type="curve" smooth="yes"/>
      <point x="132" y="325"/>
      <point x="113" y="353"/>
      <point x="121" y="386" type="curve" smooth="yes"/>
      <point x="127" y="418"/>
      <point x="158" y="445"/>
      <point x="191" y="445" type="curve" smooth="yes"/>
      <point x="224" y="445"/>
      <point x="246" y="418"/>
    </contour>
  </outline>
</glyph>
<glyph name="semicolon" format="2">
  <advance width="196"/>
  <unicode hex="003B"/>
  <outline>
    <contour>
      <point x="69" y="28" type="line"/>
      <point x="84" y="46"/>
      <point x="94" y="67"/>
      <point x="101" y="85" type="curve"/>
      <point x="75" y="92"/>
      <point x="62" y="117"/>
      <point x="68" y="144" type="curve" smooth="yes"/>
      <point x="75" y="177"/>
      <point x="106" y="203"/>
      <point x="140" y="203" type="curve" smooth="yes"/>
      <point x="172" y="203"/>
      <point x="193" y="177"/>
      <point x="186" y="144" type="curve" smooth="yes"/>
      <point x="168" y="52"/>
      <point x="89" y="12"/>
      <point x="91" y="11" type="curve"/>
    </contour>
    <contour>
      <point x="240" y="386" type="curve" smooth="yes"/>
      <point x="232" y="353"/>
      <point x="199" y="325"/>
      <point x="166" y="325" type="curve" smooth="yes"/>
      <point x="132" y="325"/>
      <point x="113" y="353"/>
      <point x="121" y="386" type="curve" smooth="yes"/>
      <point x="127" y="418"/>
      <point x="158" y="445"/>
      <point x="191" y="445" type="curve" smooth="yes"/>
      <point x="224" y="445"/>
      <point x="246" y="418"/>
    </contour>
  </outline>
</glyph>
<glyph name="I" format="2">
  <advance width="240"/>
  <unicode hex="0049"/>
  <outline>
    <contour>
      <point x="150" y="595" type="line"/>
      <point x="172" y="700" type="line"/>
      <point x="346" y="700" type="line"/>
      <point x="197" y="0" type="line"/>
      <point x="86" y="0" type="line"/>
      <point x="212" y="593" type="line"/>
    </contour>
  </outline>
</glyph>
<glyph name="J" format="2">
  <advance width="282"/>
  <unicode hex="004A"/>
  <outline>
    <contour>
      <point x="271" y="140" type="line" smooth="yes"/>
      <point x="247" y="28"/>
      <point x="167" y="-33"/>
      <point x="55" y="-37" type="curve"/>
      <point x="39" y="57" type="line"/>
      <point x="111" y="57"/>
      <point x="153" y="91"/>
      <point x="167" y="157" type="curve" smooth="yes"/>
      <point x="259" y="593" type="line"/>
      <point x="199" y="595" type="line"/>
      <point x="221" y="700" type="line"/>
      <point x="390" y="700" type="line"/>
    </contour>
  </outline>
</glyph>
<glyph name="L" format="1">
  <advance width="429" height="962"/>
  <unicode hex="004C"/>
  <outline>
    <contour>
      <point x="41.1148" y="0" type="line"/>
      <point x="189.928" y="699.954" type="line"/>
      <point x="300.236" y="699.954" type="line"/>
      <point x="172.956" y="101.283" type="line"/>
      <point x="424.659" y="101.283" type="line"/>
      <point x="403.126" y="0" type="line"/>
    </contour>
  </outline>
</glyph>
<glyph name="M" format="2">
  <advance width="622"/>
  <unicode hex="004D"/>
  <outline>
    <contour>
      <point x="301" y="700" type="line"/>
      <point x="353" y="208" type="line"/>
      <point x="617" y="700" type="line"/>
      <point x="728" y="700" type="line"/>
      <point x="579" y="0" type="line"/>
      <point x="469" y="0" type="line"/>
      <point x="547" y="371" type="line"/>
      <point x="351" y="0" type="line"/>
      <point x="268" y="0" type="line"/>
      <point x="230" y="370" type="line"/>
      <point x="152" y="0" type="line"/>
      <point x="41" y="0" type="line"/>
      <point x="190" y="700" type="line"/>
    </contour>
  </outline>
</glyph>
<glyph name="R" format="2">
  <advance width="513"/>
  <unicode hex="0052"/>
  <outline>
    <contour>
      <point x="407.536" y="699.954" type="line" smooth="yes"/>
      <point x="512.83" y="699.954"/>
      <point x="615.7" y="650.817"/>
      <point x="573.486" y="452.263" type="curve" smooth="yes"/>
      <point x="548.542" y="334.935"/>
      <point x="501.165" y="267.748"/>
      <point x="445.568" y="232.65" type="curve"/>
      <point x="481.344" y="0" type="line"/>
      <point x="364.016" y="0" type="line"/>
      <point x="336.61" y="196.549" type="line"/>
      <point x="324.364" y="195.546"/>
      <point x="312.33" y="195.546"/>
      <point x="300.296" y="195.546" type="curve" smooth="yes"/>
      <point x="192.997" y="195.546" type="line"/>
      <point x="151.423" y="0" type="line"/>
      <point x="41.1148" y="0" type="line"/>
      <point x="189.928" y="699.954" type="line"/>
    </contour>
    <contour>
      <point x="281.568" y="300.84" type="line" smooth="yes"/>
      <point x="385.859" y="300.84"/>
      <point x="433.606" y="317.888"/>
      <point x="462.175" y="452.263" type="curve" smooth="yes"/>
      <point x="489.252" y="579.618"/>
      <point x="446.258" y="589.646"/>
      <point x="342.969" y="589.646" type="curve" smooth="yes"/>
      <point x="276.784" y="589.646" type="line"/>
      <point x="215.383" y="300.84" type="line"/>
    </contour>
  </outline>
</glyph>
<glyph name="T" format="1">
  <advance width="432" height="962"/>
  <unicode hex="0054"/>
  <outline>
    <contour>
      <point x="393.899" y="588.644" type="line"/>
      <point x="268.75" y="0" type="line"/>
      <point x="158.442" y="0" type="line"/>
      <point x="283.591" y="588.644" type="line"/>
      <point x="138.185" y="588.644" type="line"/>
      <point x="161.85" y="699.954" type="line"/>
      <point x="565.978" y="699.954" type="line"/>
      <point x="542.313" y="588.644" type="line"/>
    </contour>
  </outline>
</glyph>
<glyph name="X" format="2">
  <advance width="629" height="962"/>
  <unicode hex="0058"/>
  <outline>
    <contour>
      <point x="412" y="465" type="line"/>
      <point x="605" y="700" type="line"/>
      <point x="754" y="700" type="line"/>
      <point x="462" y="343" type="line"/>
      <point x="603" y="0" type="line"/>
      <point x="466" y="0" type="line"/>
      <point x="370" y="233" type="line"/>
      <point x="179" y="0" type="line"/>
      <point x="30" y="0" type="line"/>
      <point x="320" y="352" type="line"/>
      <point x="178" y="700" type="line"/>
      <point x="316" y="700" type="line"/>
    </contour>
  </outline>
</glyph>
<glyph name="bracketright" format="2">
  <advance width="235"/>
  <unicode hex="005D"/>
  <outline>
    <contour>
      <point x="7" y="-115" type="line"/>
      <point x="29" y="-9" type="line"/>
      <point x="81" y="1" type="line"/>
      <point x="231" y="703" type="line"/>
      <point x="183" y="713" type="line"/>
      <point x="205" y="819" type="line"/>
      <point x="366" y="819" type="line"/>
      <point x="168" y="-115" type="line"/>
    </contour>
  </outline>
</glyph>
<glyph name="asciicircum" format="1">
  <advance width="267" height="962"/>
  <unicode hex="005E"/>
  <outline>
    <contour>
      <point x="428" y="774" type="line"/>
      <point x="363" y="721" type="line"/>
      <point x="307" y="803" type="line"/>
      <point x="208" y="720" type="line"/>
      <point x="168" y="773" type="line"/>
      <point x="327" y="901" type="line"/>
    </contour>
  </outline>
</glyph>
<glyph name="underscore" format="1">
  <advance width="384" height="962"/>
  <unicode hex="005F"/>
  <outline>
    <contour>
      <point x="17" y="-77" type="line"/>
      <point x="33" y="0" type="line"/>
      <point x="353" y="0" type="line"/>
      <point x="337" y="-77" type="line"/>
    </contour>
  </outline>
</glyph>
<glyph name="a" format="2">
  <advance width="452" height="962"/>
  <unicode hex="0061"/>
  <outline>
    <contour>
      <point x="376" y="335" type="curve"/>
      <point x="392" y="409"/>
      <point x="368" y="434"/>
      <point x="290" y="434" type="curve"/>
      <point x="315" y="510" type="line"/>
      <point x="468" y="510"/>
      <point x="513" y="459"/>
      <point x="481" y="307" type="curve" smooth="yes"/>
      <point x="415" y="0" type="line"/>
      <point x="359" y="-8"/>
      <point x="300" y="-11"/>
      <point x="232" y="-11" type="curve" smooth="yes"/>
      <point x="119" y="-11"/>
      <point x="35" y="29"/>
      <point x="62" y="156" type="curve" smooth="yes"/>
      <point x="83" y="253" type="line" smooth="yes"/>
      <point x="106" y="354"/>
      <point x="177" y="401"/>
      <point x="250" y="401" type="curve" smooth="yes"/>
      <point x="297" y="401"/>
      <point x="355" y="380"/>
    </contour>
    <contour>
      <point x="359" y="253" type="line"/>
      <point x="349" y="260"/>
      <point x="303" y="288"/>
      <point x="257" y="288" type="curve" smooth="yes"/>
      <point x="227" y="288"/>
      <point x="200" y="277"/>
      <point x="191" y="239" type="curve" smooth="yes"/>
      <point x="178" y="174" type="line" smooth="yes"/>
      <point x="167" y="124"/>
      <point x="172" y="91"/>
      <point x="263" y="91" type="curve" smooth="yes"/>
      <point x="280" y="91"/>
      <point x="326" y="95"/>
      <point x="325" y="95" type="curve"/>
    </contour>
  </outline>
</glyph>
<glyph name="d" format="2">
  <advance width="461" height="962"/>
  <unicode hex="0064"/>
  <outline>
    <contour>
      <point x="417" y="0" type="line"/>
      <point x="362" y="-8"/>
      <point x="303" y="-11"/>
      <point x="237" y="-11" type="curve" smooth="yes"/>
      <point x="124" y="-11"/>
      <point x="42" y="53"/>
      <point x="68" y="171" type="curve" smooth="yes"/>
      <point x="108" y="360" type="line" smooth="yes"/>
      <point x="129" y="462"/>
      <point x="216" y="509"/>
      <point x="289" y="509" type="curve" smooth="yes"/>
      <point x="336" y="509"/>
      <point x="372" y="502"/>
      <point x="410" y="483" type="curve"/>
      <point x="456" y="700" type="line"/>
      <point x="566" y="700" type="line"/>
    </contour>
    <contour>
      <point x="386" y="371" type="line"/>
      <point x="375" y="378"/>
      <point x="344" y="395"/>
      <point x="297" y="395" type="curve" smooth="yes"/>
      <point x="267" y="395"/>
      <point x="224" y="384"/>
      <point x="216" y="346" type="curve" smooth="yes"/>
      <point x="179" y="174" type="line" smooth="yes"/>
      <point x="169" y="123"/>
      <point x="176" y="91"/>
      <point x="266" y="91" type="curve" smooth="yes"/>
      <point x="282" y="91"/>
      <point x="328" y="94"/>
      <point x="327" y="94" type="curve"/>
    </contour>
  </outline>
</glyph>
<glyph name="g" format="1">
  <advance width="443" height="962"/>
  <unicode hex="0067"/>
  <outline>
    <contour>
      <point x="389.481" y="-64.1792" type="line" smooth="yes"/>
      <point x="366.882" y="-170.476"/>
      <point x="297.183" y="-210.588"/>
      <point x="201.917" y="-210.588" type="curve"/>
      <point x="193.176" y="-124.347" type="line"/>
      <point x="226.269" y="-124.347"/>
      <point x="270.218" y="-106.297"/>
      <point x="281.518" y="-53.1484" type="curve" smooth="yes"/>
      <point x="295.376" y="12.0336" type="line"/>
      <point x="270.116" y="-3.0084"/>
      <point x="233.1" y="-12.0336"/>
      <point x="200.007" y="-12.0336" type="curve" smooth="yes"/>
      <point x="89.6992" y="-12.0336"/>
      <point x="43.6024" y="54.1512"/>
      <point x="69.6128" y="176.493" type="curve" smooth="yes"/>
      <point x="105.644" y="345.966" type="line" smooth="yes"/>
      <point x="127.39" y="448.252"/>
      <point x="196.765" y="510.425"/>
      <point x="299.051" y="510.425" type="curve" smooth="yes"/>
      <point x="337.157" y="510.425"/>
      <point x="369.12" y="500.397"/>
      <point x="394.514" y="478.336" type="curve"/>
      <point x="399.204" y="500.397" type="line"/>
      <point x="509.512" y="500.397" type="line"/>
    </contour>
    <contour>
      <point x="375.113" y="387.081" type="line"/>
      <point x="375.902" y="386.078"/>
      <point x="337.109" y="411.148"/>
      <point x="304.017" y="411.148" type="curve" smooth="yes"/>
      <point x="265.91" y="411.148"/>
      <point x="226.398" y="395.103"/>
      <point x="214.246" y="337.944" type="curve" smooth="yes"/>
      <point x="176.296" y="159.445" type="line" smooth="yes"/>
      <point x="168.195" y="121.339"/>
      <point x="182.794" y="86.2408"/>
      <point x="230.352" y="88.2464" type="curve" smooth="yes"/>
      <point x="285.933" y="90.252"/>
      <point x="317.762" y="117.328"/>
      <point x="322.452" y="139.389" type="curve" smooth="yes"/>
    </contour>
  </outline>
</glyph>
<glyph name="h" format="1">
  <advance width="446" height="962"/>
  <unicode hex="0068"/>
  <outline>
    <contour>
      <point x="252" y="478" type="line"/>
      <point x="272" y="490"/>
      <point x="318" y="511"/>
      <point x="359" y="511" type="curve" smooth="yes"/>
      <point x="438" y="511"/>
      <point x="513" y="475"/>
      <point x="486" y="346" type="curve" smooth="yes"/>
      <point x="412" y="0" type="line"/>
      <point x="303" y="0" type="line"/>
      <point x="376" y="344" type="line" smooth="yes"/>
      <point x="384" y="382"/>
      <point x="361" y="410"/>
      <point x="318" y="410" type="curve" smooth="yes"/>
      <point x="296" y="410"/>
      <point x="268" y="403"/>
      <point x="233" y="387" type="curve"/>
      <point x="151" y="0" type="line"/>
      <point x="41" y="0" type="line"/>
      <point x="190" y="700" type="line"/>
      <point x="300" y="700" type="line"/>
    </contour>
  </outline>
</glyph>
<glyph name="i" format="1">
  <advance width="201" height="962"/>
  <unicode hex="0069"/>
  <outline>
    <contour>
      <point x="44" y="0" type="line"/>
      <point x="151" y="501" type="line"/>
      <point x="261" y="501" type="line"/>
      <point x="155" y="0" type="line"/>
    </contour>
    <contour>
      <point x="250" y="710" type="curve" smooth="yes"/>
      <point x="284" y="710"/>
      <point x="305" y="686"/>
      <point x="298" y="652" type="curve" smooth="yes"/>
      <point x="291" y="618"/>
      <point x="258" y="592"/>
      <point x="225" y="592" type="curve" smooth="yes"/>
      <point x="192" y="592"/>
      <point x="172" y="618"/>
      <point x="179" y="652" type="curve" smooth="yes"/>
      <point x="186" y="686"/>
      <point x="217" y="710"/>
    </contour>
  </outline>
</glyph>
<glyph name="k" format="1">
  <advance width="475" height="962"/>
  <unicode hex="006B"/>
  <outline>
    <contour>
      <point x="317.408" y="327.916" type="line"/>
      <point x="455.271" y="0" type="line"/>
      <point x="320.896" y="0" type="line"/>
      <point x="219.615" y="254.711" type="line"/>
      <point x="202.591" y="240.672" type="line"/>
      <point x="151.423" y="0" type="line"/>
      <point x="41.1148" y="0" type="line"/>
      <point x="189.928" y="699.954" type="line"/>
      <point x="300.236" y="699.954" type="line"/>
      <point x="232.865" y="383.07" type="line"/>
      <point x="412.494" y="520.453" type="line"/>
      <point x="476.514" y="444.24" type="line"/>
    </contour>
  </outline>
</glyph>
<glyph name="l" format="2">
  <advance width="195" height="962"/>
  <unicode hex="006C"/>
  <outline>
    <contour>
      <point x="41.1148" y="0" type="line"/>
      <point x="189.928" y="699.954" type="line"/>
      <point x="300.236" y="699.954" type="line"/>
      <point x="151.423" y="0" type="line"/>
    </contour>
  </outline>
</glyph>
<glyph name="n" format="1">
  <advance width="446" height="962"/>
  <unicode hex="006E"/>
  <outline>
    <contour>
      <point x="372.752" y="342.958" type="line" smooth="yes"/>
      <point x="380.853" y="381.064"/>
      <point x="357.955" y="410.145"/>
      <point x="315.837" y="410.145" type="curve" smooth="yes"/>
      <point x="293.776" y="410.145"/>
      <point x="266.424" y="404.128"/>
      <point x="230.496" y="386.078" type="curve"/>
      <point x="148.201" y="-1.0028" type="line"/>
      <point x="38.896" y="-1.0028" type="line"/>
      <point x="145.496" y="500.397" type="line"/>
      <point x="254.801" y="500.397" type="line"/>
      <point x="249.898" y="477.333" type="line"/>
      <point x="270.293" y="488.364"/>
      <point x="315.885" y="509.422"/>
      <point x="357" y="509.422" type="curve" smooth="yes"/>
      <point x="437.224" y="509.422"/>
      <point x="509.986" y="474.324"/>
      <point x="482.696" y="345.966" type="curve" smooth="yes"/>
      <point x="408.929" y="-1.0028" type="line"/>
      <point x="299.624" y="-1.0028" type="line"/>
    </contour>
  </outline>
</glyph>
<glyph name="t" format="2">
  <advance width="277"/>
  <unicode hex="0074"/>
  <outline>
    <contour>
      <point x="180.568" y="132.37" type="line" smooth="yes"/>
      <point x="170.974" y="87.2436"/>
      <point x="195.491" y="75.21"/>
      <point x="241.62" y="75.21" type="curve"/>
      <point x="189.766" y="-13.0364" type="line"/>
      <point x="88.9096" y="-11.0308"/>
      <point x="48.2136" y="38.1064"/>
      <point x="68.2544" y="132.37" type="curve" smooth="yes"/>
      <point x="188.926" y="699.954" type="line"/>
      <point x="301.239" y="699.954" type="line"/>
      <point x="258.812" y="500.397" type="line"/>
      <point x="354.078" y="500.397" type="line"/>
      <point x="309.481" y="399.114" type="line"/>
      <point x="237.279" y="399.114" type="line"/>
    </contour>
  </outline>
</glyph>
<glyph name="x" format="1">
  <advance width="513" height="962"/>
  <unicode hex="0078"/>
  <outline>
    <contour>
      <point x="334" y="357" type="line"/>
      <point x="454" y="501" type="line"/>
      <point x="590" y="501" type="line"/>
      <point x="378" y="250" type="line"/>
      <point x="477" y="0" type="line"/>
      <point x="345" y="0" type="line"/>
      <point x="287" y="141" type="line"/>
      <point x="170" y="0" type="line"/>
      <point x="31" y="0" type="line"/>
      <point x="240" y="249" type="line"/>
      <point x="138" y="501" type="line"/>
      <point x="278" y="501" type="line"/>
    </contour>
  </outline>
</glyph>
<glyph name="z" format="2">
  <advance width="435"/>
  <unicode hex="007A"/>
  <outline>
    <contour>
      <point x="499" y="501" type="line"/>
      <point x="478" y="401" type="line"/>
      <point x="204" y="106" type="line"/>
      <point x="424.787" y="105" type="line"/>
      <point x="402" y="0" type="line"/>
      <point x="33" y="0" type="line"/>
      <point x="56" y="106" type="line"/>
      <point x="328" y="398" type="line"/>
      <point x="127.213" y="399" type="line"/>
      <point x="149" y="501" type="line"/>
    </contour>
  </outline>
</glyph>
<glyph name="asciitilde" format="1">
  <advance width="267" height="962"/>
  <unicode hex="007E"/>
  <outline>
    <contour>
      <point x="356" y="300" type="line"/>
      <point x="326" y="278"/>
      <point x="290" y="257"/>
      <point x="249" y="257" type="curve"/>
      <point x="206" y="259"/>
      <point x="177" y="287"/>
      <point x="136" y="287" type="curve" smooth="yes"/>
      <point x="116" y="287"/>
      <point x="92" y="280"/>
      <point x="64" y="264" type="curve"/>
      <point x="43" y="320" type="line"/>
      <point x="75" y="343"/>
      <point x="110" y="361"/>
      <point x="147" y="361" type="curve" smooth="yes"/>
      <point x="194" y="361"/>
      <point x="224" y="332"/>
      <point x="266" y="332" type="curve" smooth="yes"/>
      <point x="285" y="332"/>
      <point x="307" y="339"/>
      <point x="335" y="356" type="curve"/>
    </contour>
  </outline>
</glyph>
<glyph name="plusminus" format="2">
  <advance width="391" height="962"/>
  <unicode hex="00B1"/>
  <outline>
    <component base="plus" xOffset="12" yOffset="30"/>
    <contour>
      <point x="407" y="247" type="line"/>
      <point x="384" y="147" type="line"/>
      <point x="63" y="147" type="line"/>
      <point x="86" y="247" type="line"/>
    </contour>
  </outline>
</glyph>
<glyph name="acute" format="1">
  <advance width="267" height="962"/>
  <unicode hex="00B4"/>
  <outline>
    <contour>
      <point x="351" y="673" type="curve" smooth="yes"/>
      <point x="277" y="598" type="line"/>
      <point x="232" y="598" type="line"/>
      <point x="288" y="714" type="line"/>
      <point x="298" y="738"/>
      <point x="334" y="760"/>
      <point x="359" y="743" type="curve" smooth="yes"/>
      <point x="381" y="729"/>
      <point x="374" y="696"/>
    </contour>
  </outline>
</glyph>
<glyph name="paragraph" format="1">
  <advance width="678" height="962"/>
  <unicode hex="00B6"/>
  <outline>
    <contour>
      <point x="290" y="196" type="line" smooth="yes"/>
      <point x="183" y="196"/>
      <point x="82" y="237"/>
      <point x="128" y="454" type="curve" smooth="yes"/>
      <point x="170" y="651"/>
      <point x="293" y="702"/>
      <point x="397" y="702" type="curve" smooth="yes"/>
      <point x="784" y="702" type="line"/>
      <point x="635" y="1" type="line"/>
      <point x="525" y="1" type="line"/>
      <point x="651" y="592" type="line"/>
      <point x="592" y="592" type="line"/>
      <point x="466" y="1" type="line"/>
      <point x="355" y="1" type="line"/>
      <point x="397" y="196" type="line"/>
    </contour>
    <contour>
      <point x="415" y="592" type="line" smooth="yes"/>
      <point x="313" y="592"/>
      <point x="265" y="579"/>
      <point x="238" y="454" type="curve" smooth="yes"/>
      <point x="209" y="319"/>
      <point x="251" y="301"/>
      <point x="353" y="301" type="curve" smooth="yes"/>
      <point x="419" y="301" type="line"/>
      <point x="481" y="592" type="line"/>
    </contour>
  </outline>
</glyph>
<glyph name="AE" format="1">
  <advance width="758" height="962"/>
  <unicode hex="00C6"/>
  <outline>
    <contour>
      <point x="388" y="0" type="line"/>
      <point x="429" y="194" type="line"/>
      <point x="264" y="194" type="line"/>
      <point x="151" y="0" type="line"/>
      <point x="21" y="0" type="line"/>
      <point x="442" y="700" type="line"/>
      <point x="872" y="700" type="line"/>
      <point x="849" y="590" type="line"/>
      <point x="622" y="590" type="line"/>
      <point x="585" y="414" type="line"/>
      <point x="737" y="414" type="line"/>
      <point x="680" y="307" type="line"/>
      <point x="562" y="307" type="line"/>
      <point x="518" y="101" type="line"/>
      <point x="743" y="101" type="line"/>
      <point x="721" y="0" type="line"/>
    </contour>
    <contour>
      <point x="326" y="301" type="line"/>
      <point x="452" y="301" type="line"/>
      <point x="513" y="590" type="line"/>
      <point x="493" y="590" type="line"/>
    </contour>
  </outline>
</glyph>
<glyph name="Eth" format="2">
  <advance width="499"/>
  <unicode hex="00D0"/>
  <outline>
    <component base="D"/>
    <contour>
      <point x="187" y="309" type="line"/>
      <point x="210" y="414" type="line"/>
      <point x="377" y="414" type="line"/>
      <point x="324" y="309" type="line"/>
    </contour>
  </outline>
</glyph>
<glyph name="Oslash" format="2">
  <advance width="495"/>
  <unicode hex="00D8"/>
  <outline>
    <component base="O"/>
    <contour>
      <point x="16" y="0" type="line"/>
      <point x="525" y="701" type="line"/>
      <point x="625" y="701" type="line"/>
      <point x="113" y="0" type="line"/>
    </contour>
  </outline>
</glyph>
<glyph name="divide" format="2">
  <advance width="381" height="962"/>
  <unicode hex="00F7"/>
  <outline>
    <contour>
      <point x="102" y="341" type="line"/>
      <point x="120" y="427" type="line"/>
      <point x="441" y="427" type="line"/>
      <point x="423" y="341" type="line"/>
    </contour>
    <contour>
      <point x="313" y="573" type="curve" smooth="yes"/>
      <point x="345" y="573"/>
      <point x="367" y="544"/>
      <point x="360" y="514" type="curve" smooth="yes"/>
      <point x="353" y="480"/>
      <point x="319" y="454"/>
      <point x="287" y="454" type="curve" smooth="yes"/>
      <point x="253" y="454"/>
      <point x="232" y="480"/>
      <point x="240" y="514" type="curve" smooth="yes"/>
      <point x="246" y="544"/>
      <point x="279" y="573"/>
    </contour>
    <contour>
      <point x="257" y="314" type="curve" smooth="yes"/>
      <point x="290" y="314"/>
      <point x="313" y="290"/>
      <point x="305" y="256" type="curve" smooth="yes"/>
      <point x="298" y="222"/>
      <point x="264" y="196"/>
      <point x="232" y="196" type="curve" smooth="yes"/>
      <point x="199" y="196"/>
      <point x="178" y="222"/>
      <point x="185" y="256" type="curve" smooth="yes"/>
      <point x="192" y="290"/>
      <point x="224" y="314"/>
    </contour>
  </outline>
</glyph>
<glyph name="oslash" format="1">
  <advance width="433" height="962"/>
  <unicode hex="00F8"/>
  <outline>
    <component base="o"/>
    <contour>
      <point x="489" y="514" type="line"/>
      <point x="139" y="-20" type="line"/>
      <point x="54" y="-20" type="line"/>
      <point x="400" y="514" type="line"/>
    </contour>
  </outline>
</glyph>
<glyph name="thorn" format="2">
  <advance width="444" height="962"/>
  <unicode hex="00FE"/>
  <outline>
    <contour>
      <point x="448" y="177" type="line" smooth="yes"/>
      <point x="422" y="54"/>
      <point x="349" y="-12"/>
      <point x="238" y="-12" type="curve" smooth="yes"/>
      <point x="205" y="-12"/>
      <point x="174" y="-2"/>
      <point x="153" y="12" type="curve"/>
      <point x="105" y="-216" type="line"/>
      <point x="-1" y="-192" type="line"/>
      <point x="188" y="700" type="line"/>
      <point x="298" y="700" type="line"/>
      <point x="252" y="479" type="line"/>
      <point x="267" y="491"/>
      <point x="323" y="511"/>
      <point x="361" y="511" type="curve" smooth="yes"/>
      <point x="463" y="511"/>
      <point x="506" y="448"/>
      <point x="484" y="346" type="curve" smooth="yes"/>
    </contour>
    <contour>
      <point x="372" y="338" type="line" smooth="yes"/>
      <point x="384" y="395"/>
      <point x="352" y="411"/>
      <point x="314" y="411" type="curve" smooth="yes"/>
      <point x="282" y="411"/>
      <point x="239" y="390"/>
      <point x="233" y="387" type="curve"/>
      <point x="180" y="140" type="line" smooth="yes"/>
      <point x="172" y="103"/>
      <point x="223" y="88"/>
      <point x="254" y="88" type="curve" smooth="yes"/>
      <point x="296" y="88"/>
      <point x="325" y="117"/>
      <point x="334" y="160" type="curve" smooth="yes"/>
    </contour>
  </outline>
</glyph>
<glyph name="hbar" format="2">
  <advance width="446"/>
  <unicode hex="0127"/>
  <outline>
    <component base="h" xOffset="-1"/>
    <contour>
      <point x="356" y="550" type="line"/>
      <point x="120" y="550" type="line"/>
      <point x="140" y="641" type="line"/>
      <point x="375" y="641" type="line"/>
    </contour>
  </outline>
</glyph>
<glyph name="IJ" format="2">
  <advance width="539"/>
  <unicode hex="0132"/>
  <outline>
    <contour>
      <point x="658" y="700" type="line"/>
      <point x="548" y="186" type="line" smooth="yes"/>
      <point x="521" y="60"/>
      <point x="423" y="-11"/>
      <point x="297" y="-11" type="curve" smooth="yes"/>
      <point x="183" y="-11"/>
      <point x="100" y="58"/>
      <point x="127" y="186" type="curve" smooth="yes"/>
      <point x="135" y="224" type="line"/>
      <point x="245" y="224" type="line"/>
      <point x="241" y="205" type="line" smooth="yes"/>
      <point x="227" y="141"/>
      <point x="253" y="102"/>
      <point x="320" y="102" type="curve" smooth="yes"/>
      <point x="383" y="102"/>
      <point x="429" y="146"/>
      <point x="442" y="207" type="curve" smooth="yes"/>
      <point x="525" y="594" type="line"/>
      <point x="466" y="595" type="line"/>
      <point x="488" y="700" type="line"/>
    </contour>
    <contour>
      <point x="347" y="700" type="line"/>
      <point x="266" y="321" type="line"/>
      <point x="156" y="321" type="line"/>
      <point x="213" y="593" type="line"/>
      <point x="150" y="595" type="line"/>
      <point x="172" y="700" type="line"/>
    </contour>
  </outline>
</glyph>
<glyph name="ij" format="2">
  <advance width="453" height="962"/>
  <unicode hex="0133"/>
  <outline>
    <contour>
      <point x="250" y="710" type="curve" smooth="yes"/>
      <point x="284" y="710"/>
      <point x="305" y="686"/>
      <point x="298" y="652" type="curve" smooth="yes"/>
      <point x="291" y="618"/>
      <point x="258" y="592"/>
      <point x="225" y="592" type="curve" smooth="yes"/>
      <point x="192" y="592"/>
      <point x="172" y="618"/>
      <point x="179" y="652" type="curve" smooth="yes"/>
      <point x="186" y="686"/>
      <point x="217" y="710"/>
    </contour>
    <contour>
      <point x="560" y="651" type="curve" smooth="yes"/>
      <point x="553" y="619"/>
      <point x="519" y="592"/>
      <point x="486" y="592" type="curve" smooth="yes"/>
      <point x="453" y="592"/>
      <point x="432" y="619"/>
      <point x="439" y="651" type="curve" smooth="yes"/>
      <point x="446" y="685"/>
      <point x="478" y="710"/>
      <point x="511" y="710" type="curve" smooth="yes"/>
      <point x="545" y="710"/>
      <point x="567" y="685"/>
    </contour>
    <contour>
      <point x="411" y="503" type="line"/>
      <point x="521" y="503" type="line"/>
      <point x="402" y="-59" type="line" smooth="yes"/>
      <point x="382" y="-153"/>
      <point x="315" y="-214"/>
      <point x="217" y="-214" type="curve"/>
      <point x="207" y="-125" type="line"/>
      <point x="249" y="-125"/>
      <point x="286" y="-87"/>
      <point x="294" y="-48" type="curve" smooth="yes"/>
      <point x="310" y="28" type="line"/>
      <point x="294" y="14"/>
      <point x="245" y="-6"/>
      <point x="202" y="-6" type="curve" smooth="yes"/>
      <point x="123" y="-6"/>
      <point x="50" y="30"/>
      <point x="77" y="159" type="curve" smooth="yes"/>
      <point x="150" y="503" type="line"/>
      <point x="261" y="503" type="line"/>
      <point x="189" y="162" type="line" smooth="yes"/>
      <point x="181" y="124"/>
      <point x="203" y="95"/>
      <point x="244" y="95" type="curve" smooth="yes"/>
      <point x="290" y="95"/>
      <point x="332" y="131"/>
      <point x="342" y="177" type="curve" smooth="yes"/>
    </contour>
  </outline>
</glyph>
<glyph name="Lslash" format="1">
  <advance width="518" height="962"/>
  <unicode hex="0141"/>
  <outline>
    <component base="L" xOffset="90"/>
    <contour>
      <point x="117" y="278" type="line"/>
      <point x="98" y="360" type="line"/>
      <point x="416" y="490" type="line"/>
      <point x="436" y="410" type="line"/>
    </contour>
  </outline>
</glyph>
<glyph name="eng" format="1">
  <advance width="446" height="962"/>
  <unicode hex="014B"/>
  <outline>
    <contour>
      <point x="397" y="-60" type="line" smooth="yes"/>
      <point x="378" y="-148"/>
      <point x="306" y="-215"/>
      <point x="213" y="-215" type="curve"/>
      <point x="202" y="-126" type="line"/>
      <point x="246" y="-118"/>
      <point x="279" y="-95"/>
      <point x="289" y="-49" type="curve" smooth="yes"/>
      <point x="372" y="344" type="line" smooth="yes"/>
      <point x="380" y="381"/>
      <point x="364" y="410"/>
      <point x="320" y="410" type="curve" smooth="yes"/>
      <point x="295" y="410"/>
      <point x="269" y="402"/>
      <point x="231" y="387" type="curve"/>
      <point x="149" y="0" type="line"/>
      <point x="39" y="0" type="line"/>
      <point x="146" y="501" type="line"/>
      <point x="255" y="501" type="line"/>
      <point x="250" y="478" type="line"/>
      <point x="270" y="490"/>
      <point x="316" y="511"/>
      <point x="357" y="511" type="curve" smooth="yes"/>
      <point x="437" y="511"/>
      <point x="510" y="475"/>
      <point x="483" y="346" type="curve" smooth="yes"/>
    </contour>
  </outline>
</glyph>
<glyph name="tbar" format="1">
  <advance width="305" height="962"/>
  <unicode hex="0167"/>
  <outline>
    <component base="t" xOffset="28"/>
    <contour>
      <point x="309" y="236" type="line"/>
      <point x="51" y="236" type="line"/>
      <point x="71" y="327" type="line"/>
      <point x="329" y="327" type="line"/>
    </contour>
  </outline>
</glyph>
<glyph name="tilde" format="2">
  <advance width="267"/>
  <unicode hex="02DC"/>
  <outline>
    <contour>
      <point x="348" y="710" type="line"/>
      <point x="415" y="710" type="line"/>
      <point x="413" y="702" type="line" smooth="yes"/>
      <point x="402" y="652"/>
      <point x="366" y="607"/>
      <point x="311" y="607" type="curve" smooth="yes"/>
      <point x="298" y="607"/>
      <point x="285" y="612"/>
      <point x="275" y="617" type="curve" smooth="yes"/>
      <point x="267" y="621"/>
      <point x="252" y="633"/>
      <point x="246" y="637" type="curve" smooth="yes"/>
      <point x="238" y="644"/>
      <point x="229" y="647"/>
      <point x="222" y="647" type="curve" smooth="yes"/>
      <point x="206" y="647"/>
      <point x="204" y="635"/>
      <point x="201" y="621" type="curve" smooth="yes"/>
      <point x="200" y="613" type="line"/>
      <point x="133" y="613" type="line"/>
      <point x="134" y="621" type="line" smooth="yes"/>
      <point x="139" y="661"/>
      <point x="165" y="698"/>
      <point x="207" y="710" type="curve" smooth="yes"/>
      <point x="231" y="717"/>
      <point x="254" y="714"/>
      <point x="273" y="704" type="curve" smooth="yes"/>
      <point x="284" y="698"/>
      <point x="289" y="694"/>
      <point x="301" y="686" type="curve" smooth="yes"/>
      <point x="306" y="682"/>
      <point x="318" y="674"/>
      <point x="326" y="674" type="curve" smooth="yes"/>
      <point x="341" y="674"/>
      <point x="343" y="690"/>
      <point x="346" y="702" type="curve" smooth="yes"/>
    </contour>
  </outline>
</glyph>
<glyph name="hungarumlaut" format="1">
  <advance width="267" height="962"/>
  <unicode hex="02DD"/>
  <outline>
    <contour>
      <point x="295" y="647" type="curve" smooth="yes"/>
      <point x="221" y="571" type="line"/>
      <point x="177" y="571" type="line"/>
      <point x="231" y="687" type="line" smooth="yes"/>
      <point x="242" y="710"/>
      <point x="279" y="734"/>
      <point x="303" y="718" type="curve"/>
      <point x="327" y="705"/>
      <point x="318" y="671"/>
    </contour>
    <contour>
      <point x="408" y="647" type="curve" smooth="yes"/>
      <point x="333" y="571" type="line"/>
      <point x="289" y="571" type="line"/>
      <point x="344" y="687" type="line" smooth="yes"/>
      <point x="356" y="714"/>
      <point x="391" y="733"/>
      <point x="415" y="718" type="curve"/>
      <point x="439" y="705"/>
      <point x="432" y="670"/>
    </contour>
  </outline>
</glyph>
<glyph name="acutecomb" format="2">
  <advance width="267"/>
  <unicode hex="0301"/>
  <outline>
    <contour>
      <point x="351" y="673" type="curve" smooth="yes"/>
      <point x="277" y="598" type="line"/>
      <point x="232" y="598" type="line"/>
      <point x="288" y="714" type="line"/>
      <point x="298" y="738"/>
      <point x="334" y="760"/>
      <point x="359" y="743" type="curve" smooth="yes"/>
      <point x="381" y="729"/>
      <point x="374" y="696"/>
    </contour>
  </outline>
</glyph>
<glyph name="hungarumlautcomb" format="2">
  <advance width="267"/>
  <unicode hex="030B"/>
  <outline>
    <contour>
      <point x="295" y="647" type="curve" smooth="yes"/>
      <point x="221" y="571" type="line"/>
      <point x="177" y="571" type="line"/>
      <point x="231" y="687" type="line" smooth="yes"/>
      <point x="242" y="710"/>
      <point x="278" y="733"/>
      <point x="303" y="718" type="curve" smooth="yes"/>
      <point x="326" y="704"/>
      <point x="318" y="671"/>
    </contour>
    <contour>
      <point x="408" y="647" type="curve" smooth="yes"/>
      <point x="333" y="571" type="line"/>
      <point x="289" y="571" type="line"/>
      <point x="344" y="687" type="line" smooth="yes"/>
      <point x="356" y="714"/>
      <point x="391" y="732"/>
      <point x="415" y="718" type="curve" smooth="yes"/>
      <point x="439" y="704"/>
      <point x="432" y="670"/>
    </contour>
  </outline>
</glyph>
<glyph name="tonos" format="2">
  <advance width="267"/>
  <unicode hex="0384"/>
  <outline>
    <contour>
      <point x="321" y="673" type="curve" smooth="yes"/>
      <point x="246" y="598" type="line"/>
      <point x="202" y="598" type="line"/>
      <point x="257" y="714" type="line" smooth="yes"/>
      <point x="268" y="738"/>
      <point x="304" y="760"/>
      <point x="329" y="743" type="curve" smooth="yes"/>
      <point x="351" y="729"/>
      <point x="344" y="696"/>
    </contour>
  </outline>
</glyph>
<glyph name="Deltagreek" format="1">
  <advance width="545" height="962"/>
  <unicode hex="0394"/>
  <outline>
    <contour>
      <point x="525" y="0" type="line"/>
      <point x="18" y="0" type="line"/>
      <point x="357" y="700" type="line"/>
      <point x="468" y="700" type="line"/>
    </contour>
    <contour>
      <point x="188" y="101" type="line"/>
      <point x="399" y="101" type="line"/>
      <point x="375" y="490" type="line"/>
    </contour>
  </outline>
</glyph>
<glyph name="Eta" format="1">
  <advance width="516" height="962"/>
  <unicode hex="0397"/>
  <outline>
    <contour>
      <point x="452" y="414" type="line"/>
      <point x="512" y="700" type="line"/>
      <point x="621" y="700" type="line"/>
      <point x="473" y="0" type="line"/>
      <point x="363" y="0" type="line"/>
      <point x="429" y="309" type="line"/>
      <point x="217" y="309" type="line"/>
      <point x="152" y="0" type="line"/>
      <point x="41" y="0" type="line"/>
      <point x="190" y="700" type="line"/>
      <point x="301" y="700" type="line"/>
      <point x="240" y="414" type="line"/>
    </contour>
  </outline>
</glyph>
<glyph name="Xi" format="1">
  <advance width="567" height="962"/>
  <unicode hex="039E"/>
  <outline>
    <contour>
      <point x="151" y="596" type="line"/>
      <point x="188" y="671"/>
      <point x="239" y="700"/>
      <point x="320" y="700" type="curve" smooth="yes"/>
      <point x="645" y="700" type="line"/>
      <point x="600" y="590" type="line"/>
      <point x="317" y="590" type="line" smooth="yes"/>
      <point x="267" y="590"/>
      <point x="236" y="575"/>
      <point x="217" y="545" type="curve"/>
    </contour>
    <contour>
      <point x="483" y="307" type="line"/>
      <point x="216" y="307" type="line"/>
      <point x="239" y="414" type="line"/>
      <point x="506" y="414" type="line"/>
    </contour>
    <contour>
      <point x="372" y="101" type="line" smooth="yes"/>
      <point x="425" y="101"/>
      <point x="452" y="113"/>
      <point x="476" y="157" type="curve"/>
      <point x="548" y="107" type="line"/>
      <point x="521" y="32"/>
      <point x="459" y="0"/>
      <point x="380" y="0" type="curve" smooth="yes"/>
      <point x="64" y="0" type="line"/>
      <point x="105" y="101" type="line"/>
    </contour>
  </outline>
</glyph>
<glyph name="Chi" format="1">
  <advance width="629" height="962"/>
  <unicode hex="03A7"/>
  <outline>
    <contour>
      <point x="412" y="465" type="line"/>
      <point x="605" y="700" type="line"/>
      <point x="754" y="700" type="line"/>
      <point x="462" y="343" type="line"/>
      <point x="603" y="0" type="line"/>
      <point x="466" y="0" type="line"/>
      <point x="370" y="233" type="line"/>
      <point x="179" y="0" type="line"/>
      <point x="30" y="0" type="line"/>
      <point x="320" y="352" type="line"/>
      <point x="178" y="700" type="line"/>
      <point x="316" y="700" type="line"/>
    </contour>
  </outline>
</glyph>
<glyph name="Psi" format="2">
  <advance width="599"/>
  <unicode hex="03A8"/>
  <outline>
    <contour>
      <point x="236" y="432" type="line" smooth="yes"/>
      <point x="217" y="342"/>
      <point x="226" y="307"/>
      <point x="289" y="307" type="curve" smooth="yes"/>
      <point x="307" y="307" type="line"/>
      <point x="391" y="700" type="line"/>
      <point x="501" y="700" type="line"/>
      <point x="417" y="307" type="line"/>
      <point x="440" y="307" type="line" smooth="yes"/>
      <point x="501" y="307"/>
      <point x="528" y="341"/>
      <point x="548" y="434" type="curve" smooth="yes"/>
      <point x="575" y="565" type="line" smooth="yes"/>
      <point x="591" y="637"/>
      <point x="547" y="666"/>
      <point x="550" y="667" type="curve"/>
      <point x="659" y="710" type="line"/>
      <point x="676" y="701"/>
      <point x="701" y="651"/>
      <point x="680" y="550" type="curve" smooth="yes"/>
      <point x="650" y="407" type="line" smooth="yes"/>
      <point x="623" y="286"/>
      <point x="549" y="214"/>
      <point x="421" y="214" type="curve" smooth="yes"/>
      <point x="398" y="214" type="line"/>
      <point x="352" y="0" type="line"/>
      <point x="242" y="0" type="line"/>
      <point x="288" y="214" type="line"/>
      <point x="269" y="214" type="line" smooth="yes"/>
      <point x="144" y="214"/>
      <point x="96" y="286"/>
      <point x="122" y="407" type="curve" smooth="yes"/>
      <point x="184" y="700" type="line"/>
      <point x="294" y="700" type="line"/>
    </contour>
  </outline>
</glyph>
<glyph name="delta" format="2">
  <advance width="437"/>
  <unicode hex="03B4"/>
  <outline>
    <contour>
      <point x="334" y="591" type="line" smooth="yes"/>
      <point x="326" y="591"/>
      <point x="312" y="585"/>
      <point x="312" y="571" type="curve" smooth="yes"/>
      <point x="312" y="562"/>
      <point x="318" y="555"/>
      <point x="323" y="550" type="curve" smooth="yes"/>
      <point x="370" y="501"/>
      <point x="429" y="462"/>
      <point x="458" y="398" type="curve" smooth="yes"/>
      <point x="470" y="367"/>
      <point x="474" y="328"/>
      <point x="464" y="281" type="curve" smooth="yes"/>
      <point x="443" y="184" type="line" smooth="yes"/>
      <point x="417" y="58"/>
      <point x="338" y="-9"/>
      <point x="213" y="-9" type="curve" smooth="yes"/>
      <point x="104" y="-9"/>
      <point x="43" y="59"/>
      <point x="69" y="184" type="curve" smooth="yes"/>
      <point x="90" y="281" type="line" smooth="yes"/>
      <point x="109" y="369"/>
      <point x="161" y="451"/>
      <point x="261" y="465" type="curve"/>
      <point x="250" y="476" type="line" smooth="yes"/>
      <point x="220" y="506"/>
      <point x="204" y="542"/>
      <point x="207" y="575" type="curve" smooth="yes"/>
      <point x="216" y="669"/>
      <point x="318" y="702"/>
      <point x="401" y="702" type="curve" smooth="yes"/>
      <point x="519" y="702" type="line"/>
      <point x="474" y="590" type="line"/>
    </contour>
    <contour>
      <point x="353" y="290" type="line" smooth="yes"/>
      <point x="356" y="306"/>
      <point x="363" y="351"/>
      <point x="336" y="380" type="curve" smooth="yes"/>
      <point x="323" y="394" type="line"/>
      <point x="262" y="382"/>
      <point x="218" y="350"/>
      <point x="206" y="288" type="curve" smooth="yes"/>
      <point x="182" y="176" type="line" smooth="yes"/>
      <point x="173" y="135"/>
      <point x="185" y="100"/>
      <point x="238" y="100" type="curve" smooth="yes"/>
      <point x="292" y="100"/>
      <point x="320" y="135"/>
      <point x="328" y="176" type="curve" smooth="yes"/>
    </contour>
  </outline>
</glyph>
<glyph name="epsilon" format="2">
  <advance width="400" height="962"/>
  <unicode hex="03B5"/>
  <outline>
    <contour>
      <point x="390" y="402" type="line"/>
      <point x="364" y="410"/>
      <point x="336" y="417"/>
      <point x="298" y="413" type="curve" smooth="yes"/>
      <point x="272" y="410"/>
      <point x="238" y="396"/>
      <point x="231" y="362" type="curve" smooth="yes"/>
      <point x="220" y="312"/>
      <point x="276" y="302"/>
      <point x="312" y="302" type="curve" smooth="yes"/>
      <point x="365" y="302" type="line"/>
      <point x="314" y="206" type="line"/>
      <point x="252" y="206" type="line" smooth="yes"/>
      <point x="211" y="206"/>
      <point x="176" y="187"/>
      <point x="169" y="154" type="curve" smooth="yes"/>
      <point x="161" y="116"/>
      <point x="197" y="102"/>
      <point x="242" y="102" type="curve" smooth="yes"/>
      <point x="285" y="102"/>
      <point x="336" y="113"/>
      <point x="368" y="130" type="curve"/>
      <point x="378" y="23" type="line"/>
      <point x="320" y="1"/>
      <point x="262" y="-11"/>
      <point x="199" y="-11" type="curve" smooth="yes"/>
      <point x="80" y="-11"/>
      <point x="40" y="83"/>
      <point x="57" y="161" type="curve" smooth="yes"/>
      <point x="68" y="214"/>
      <point x="107" y="266"/>
      <point x="159" y="288" type="curve"/>
      <point x="132" y="314"/>
      <point x="121" y="351"/>
      <point x="130" y="393" type="curve" smooth="yes"/>
      <point x="143" y="454"/>
      <point x="202" y="509"/>
      <point x="302" y="512" type="curve" smooth="yes"/>
      <point x="337" y="513"/>
      <point x="371" y="507"/>
      <point x="407" y="497" type="curve"/>
    </contour>
  </outline>
</glyph>
<glyph name="kappa" format="2">
  <advance width="476"/>
  <unicode hex="03BA"/>
  <outline>
    <contour>
      <point x="392" y="160" type="line" smooth="yes"/>
      <point x="418" y="109"/>
      <point x="430" y="98"/>
      <point x="455" y="98" type="curve" smooth="yes"/>
      <point x="460" y="98" type="line"/>
      <point x="436" y="0" type="line"/>
      <point x="421" y="0" type="line" smooth="yes"/>
      <point x="347" y="0"/>
      <point x="312" y="54"/>
      <point x="283" y="113" type="curve"/>
      <point x="227" y="222" type="line"/>
      <point x="192" y="195" type="line"/>
      <point x="151" y="0" type="line"/>
      <point x="40" y="0" type="line"/>
      <point x="149" y="512" type="line"/>
      <point x="257" y="500" type="line"/>
      <point x="222" y="334" type="line"/>
      <point x="411" y="501" type="line"/>
      <point x="548" y="501" type="line"/>
      <point x="322" y="300" type="line"/>
    </contour>
  </outline>
</glyph>
<glyph name="uni040F" format="1">
  <advance width="518" height="962"/>
  <unicode hex="040F"/>
  <outline>
    <contour>
      <point x="623" y="700" type="line"/>
      <point x="474" y="0" type="line"/>
      <point x="315" y="0" type="line"/>
      <point x="278" y="-125" type="line"/>
      <point x="188" y="-125" type="line"/>
      <point x="204" y="0" type="line"/>
      <point x="43" y="0" type="line"/>
      <point x="192" y="700" type="line"/>
      <point x="304" y="700" type="line"/>
      <point x="178" y="110" type="line"/>
      <point x="386" y="110" type="line"/>
      <point x="512" y="700" type="line"/>
    </contour>
  </outline>
</glyph>
<glyph name="uni041D" format="2">
  <advance width="516"/>
  <unicode hex="041D"/>
  <outline>
    <contour>
      <point x="452" y="414" type="line"/>
      <point x="512" y="700" type="line"/>
      <point x="621" y="700" type="line"/>
      <point x="473" y="0" type="line"/>
      <point x="363" y="0" type="line"/>
      <point x="429" y="309" type="line"/>
      <point x="217" y="309" type="line"/>
      <point x="152" y="0" type="line"/>
      <point x="41" y="0" type="line"/>
      <point x="190" y="700" type="line"/>
      <point x="301" y="700" type="line"/>
      <point x="240" y="414" type="line"/>
    </contour>
  </outline>
</glyph>
<glyph name="uni0423" format="2">
  <advance width="505" height="962"/>
  <unicode hex="0423"/>
  <outline>
    <contour>
      <point x="523" y="700" type="line"/>
      <point x="650" y="700" type="line"/>
      <point x="292" y="143" type="line" smooth="yes"/>
      <point x="220" y="32"/>
      <point x="169" y="-2"/>
      <point x="74" y="-22" type="curve"/>
      <point x="37" y="31" type="line"/>
      <point x="84" y="52"/>
      <point x="116" y="59"/>
      <point x="160" y="128" type="curve" smooth="yes"/>
      <point x="259" y="284" type="line"/>
      <point x="155" y="700" type="line"/>
      <point x="270" y="700" type="line"/>
      <point x="331" y="397" type="line"/>
    </contour>
  </outline>
</glyph>
<glyph name="uni0427" format="1">
  <advance width="489" height="962"/>
  <unicode hex="0427"/>
  <outline>
    <contour>
      <point x="616" y="700" type="line"/>
      <point x="467" y="0" type="line"/>
      <point x="356" y="0" type="line"/>
      <point x="415" y="278" type="line"/>
      <point x="373" y="249"/>
      <point x="330" y="241"/>
      <point x="285" y="241" type="curve" smooth="yes"/>
      <point x="158" y="241"/>
      <point x="91" y="322"/>
      <point x="120" y="454" type="curve" smooth="yes"/>
      <point x="172" y="700" type="line"/>
      <point x="283" y="700" type="line"/>
      <point x="232" y="463" type="line" smooth="yes"/>
      <point x="216" y="384"/>
      <point x="241" y="341"/>
      <point x="323" y="341" type="curve" smooth="yes"/>
      <point x="380" y="341"/>
      <point x="439" y="389"/>
      <point x="451" y="446" type="curve" smooth="yes"/>
      <point x="505" y="700" type="line"/>
    </contour>
  </outline>
</glyph>
<glyph name="uni0428" format="2">
  <advance width="641"/>
  <unicode hex="0428"/>
  <outline>
    <contour>
      <point x="637" y="700" type="line"/>
      <point x="749" y="700" type="line"/>
      <point x="600" y="0" type="line"/>
      <point x="44" y="0" type="line"/>
      <point x="193" y="700" type="line"/>
      <point x="304" y="700" type="line"/>
      <point x="178" y="110" type="line"/>
      <point x="289" y="110" type="line"/>
      <point x="415" y="700" type="line"/>
      <point x="526" y="700" type="line"/>
      <point x="400" y="110" type="line"/>
      <point x="511" y="110" type="line"/>
    </contour>
  </outline>
</glyph>
<glyph name="uni0429" format="1">
  <advance width="732" height="962"/>
  <unicode hex="0429"/>
  <outline>
    <component base="uni0428"/>
    <contour>
      <point x="609" y="110" type="line"/>
      <point x="733" y="110" type="line"/>
      <point x="683" y="-125" type="line"/>
      <point x="591" y="-125" type="line"/>
      <point x="597" y="0" type="line"/>
      <point x="586" y="0" type="line"/>
    </contour>
  </outline>
</glyph>
<glyph name="uni0434" format="1">
  <advance width="550" height="962"/>
  <unicode hex="0434"/>
  <outline>
    <contour>
      <point x="506" y="109" type="line"/>
      <point x="562" y="109" type="line"/>
      <point x="512" y="-126" type="line"/>
      <point x="420" y="-126" type="line"/>
      <point x="426" y="-1" type="line"/>
      <point x="122" y="-1" type="line"/>
      <point x="74" y="-126" type="line"/>
      <point x="-18" y="-126" type="line"/>
      <point x="32" y="109" type="line"/>
      <point x="100" y="109" type="line"/>
      <point x="221" y="350" type="line" smooth="yes"/>
      <point x="254" y="415"/>
      <point x="301" y="501"/>
      <point x="421" y="501" type="curve" smooth="yes"/>
      <point x="589" y="501" type="line"/>
    </contour>
    <contour>
      <point x="215" y="109" type="line"/>
      <point x="395" y="109" type="line"/>
      <point x="459" y="407" type="line"/>
      <point x="428" y="407" type="line" smooth="yes"/>
      <point x="385" y="407"/>
      <point x="354" y="396"/>
      <point x="329" y="345" type="curve" smooth="yes"/>
    </contour>
  </outline>
</glyph>
<glyph name="uni0438" format="2">
  <advance width="446"/>
  <unicode hex="0438"/>
  <outline>
    <contour>
      <point x="255" y="500" type="line"/>
      <point x="192" y="203" type="line"/>
      <point x="402" y="500" type="line"/>
      <point x="514" y="500" type="line"/>
      <point x="408" y="-1" type="line"/>
      <point x="296" y="-1" type="line"/>
      <point x="358" y="294" type="line"/>
      <point x="149" y="-1" type="line"/>
      <point x="39" y="-1" type="line"/>
      <point x="145" y="500" type="line"/>
    </contour>
  </outline>
</glyph>
<glyph name="uni043B" format="1">
  <advance width="535" height="962"/>
  <unicode hex="043B"/>
  <outline>
    <contour>
      <point x="428" y="500" type="curve" smooth="yes"/>
      <point x="596" y="500" type="line"/>
      <point x="490" y="1" type="line"/>
      <point x="379" y="1" type="line"/>
      <point x="465" y="406" type="line"/>
      <point x="434" y="406" type="line" smooth="yes"/>
      <point x="391" y="406"/>
      <point x="366" y="395"/>
      <point x="340" y="345" type="curve" smooth="yes"/>
      <point x="238" y="141" type="line" smooth="yes"/>
      <point x="182" y="30"/>
      <point x="142" y="-4"/>
      <point x="50" y="-24" type="curve"/>
      <point x="5" y="29" type="line"/>
      <point x="48" y="50"/>
      <point x="73" y="58"/>
      <point x="109" y="126" type="curve" smooth="yes"/>
      <point x="224" y="350" type="line" smooth="yes"/>
      <point x="257" y="414"/>
      <point x="308" y="500"/>
    </contour>
  </outline>
</glyph>
<glyph name="uni043D" format="1">
  <advance width="443" height="962"/>
  <unicode hex="043D"/>
  <outline>
    <contour>
      <point x="365" y="326" type="line"/>
      <point x="402" y="500" type="line"/>
      <point x="512" y="500" type="line"/>
      <point x="406" y="0" type="line"/>
      <point x="296" y="0" type="line"/>
      <point x="343" y="221" type="line"/>
      <point x="195" y="221" type="line"/>
      <point x="148" y="0" type="line"/>
      <point x="37" y="0" type="line"/>
      <point x="143" y="500" type="line"/>
      <point x="254" y="500" type="line"/>
      <point x="217" y="326" type="line"/>
    </contour>
  </outline>
</glyph>
<glyph name="uni0448" format="2">
  <advance width="615" height="962"/>
  <unicode hex="0448"/>
  <outline>
    <contour>
      <point x="565" y="500" type="line"/>
      <point x="676" y="500" type="line"/>
      <point x="570" y="0" type="line"/>
      <point x="44" y="0" type="line"/>
      <point x="150" y="500" type="line"/>
      <point x="261" y="500" type="line"/>
      <point x="178" y="110" type="line"/>
      <point x="274" y="110" type="line"/>
      <point x="357" y="500" type="line"/>
      <point x="468" y="500" type="line"/>
      <point x="385" y="110" type="line"/>
      <point x="482" y="110" type="line"/>
    </contour>
  </outline>
</glyph>
<glyph name="uni0452" format="1">
  <advance width="474" height="962"/>
  <unicode hex="0452"/>
  <outline>
    <contour>
      <point x="136" y="641" type="line"/>
      <point x="426" y="641" type="line"/>
      <point x="407" y="550" type="line"/>
      <point x="117" y="550" type="line"/>
    </contour>
    <contour>
      <point x="386" y="510" type="curve" smooth="yes"/>
      <point x="465" y="510"/>
      <point x="540" y="474"/>
      <point x="512" y="345" type="curve" smooth="yes"/>
      <point x="426" y="-62" type="line" smooth="yes"/>
      <point x="407" y="-152"/>
      <point x="331" y="-217"/>
      <point x="240" y="-217" type="curve"/>
      <point x="229" y="-127" type="line"/>
      <point x="272" y="-116"/>
      <point x="309" y="-99"/>
      <point x="319" y="-51" type="curve" smooth="yes"/>
      <point x="403" y="343" type="line" smooth="yes"/>
      <point x="411" y="381"/>
      <point x="388" y="409"/>
      <point x="345" y="409" type="curve" smooth="yes"/>
      <point x="322" y="409"/>
      <point x="294" y="402"/>
      <point x="259" y="386" type="curve"/>
      <point x="177" y="-1" type="line"/>
      <point x="67" y="-1" type="line"/>
      <point x="216" y="700" type="line"/>
      <point x="326" y="700" type="line"/>
      <point x="278" y="477" type="line"/>
      <point x="298" y="489"/>
      <point x="344" y="510"/>
    </contour>
  </outline>
</glyph>
<glyph name="uni0459" format="1">
  <advance width="796" height="962"/>
  <unicode hex="0459"/>
  <outline>
    <contour>
      <point x="659" y="302" type="line" smooth="yes"/>
      <point x="738" y="302"/>
      <point x="824" y="256"/>
      <point x="801" y="149" type="curve" smooth="yes"/>
      <point x="785" y="71"/>
      <point x="710" y="-11"/>
      <point x="591" y="-11" type="curve" smooth="yes"/>
      <point x="529" y="-11"/>
      <point x="381" y="0"/>
      <point x="381" y="0" type="curve"/>
      <point x="467" y="406" type="line"/>
      <point x="433" y="406" type="line" smooth="yes"/>
      <point x="390" y="406"/>
      <point x="366" y="394"/>
      <point x="341" y="344" type="curve" smooth="yes"/>
      <point x="239" y="140" type="line" smooth="yes"/>
      <point x="183" y="29"/>
      <point x="142" y="-5"/>
      <point x="49" y="-25" type="curve"/>
      <point x="4" y="28" type="line"/>
      <point x="47" y="49"/>
      <point x="77" y="57"/>
      <point x="112" y="125" type="curve" smooth="yes"/>
      <point x="226" y="349" type="line" smooth="yes"/>
      <point x="259" y="413"/>
      <point x="305" y="500"/>
      <point x="425" y="500" type="curve" smooth="yes"/>
      <point x="598" y="500" type="line"/>
      <point x="556" y="302" type="line"/>
    </contour>
    <contour>
      <point x="596" y="102" type="curve" smooth="yes"/>
      <point x="641" y="102"/>
      <point x="677" y="114"/>
      <point x="685" y="152" type="curve" smooth="yes"/>
      <point x="692" y="185"/>
      <point x="669" y="199"/>
      <point x="628" y="199" type="curve" smooth="yes"/>
      <point x="534" y="199" type="line"/>
      <point x="514" y="104" type="line"/>
      <point x="545" y="103"/>
      <point x="577" y="102"/>
    </contour>
  </outline>
</glyph>
<glyph name="uni0462" format="1">
  <advance width="478" height="962"/>
  <unicode hex="0462"/>
  <outline>
    <component base="uni042C" xOffset="25"/>
    <contour>
      <point x="136" y="641" type="line"/>
      <point x="425" y="641" type="line"/>
      <point x="406" y="550" type="line"/>
      <point x="117" y="550" type="line"/>
    </contour>
  </outline>
</glyph>
<glyph name="uni0473" format="1">
  <advance width="433" height="962"/>
  <unicode hex="0473"/>
  <outline>
    <contour>
      <point x="437" y="185" type="line" smooth="yes"/>
      <point x="411" y="68"/>
      <point x="336" y="-10"/>
      <point x="214" y="-10" type="curve" smooth="yes"/>
      <point x="82" y="-10"/>
      <point x="45" y="83"/>
      <point x="67" y="185" type="curve" smooth="yes"/>
      <point x="96" y="317" type="line" smooth="yes"/>
      <point x="124" y="444"/>
      <point x="203" y="512"/>
      <point x="325" y="512" type="curve" smooth="yes"/>
      <point x="441" y="512"/>
      <point x="493" y="439"/>
      <point x="466" y="317" type="curve" smooth="yes"/>
    </contour>
    <contour>
      <point x="354" y="323" type="line" smooth="yes"/>
      <point x="364" y="371"/>
      <point x="347" y="401"/>
      <point x="300" y="401" type="curve" smooth="yes"/>
      <point x="252" y="401"/>
      <point x="219" y="374"/>
      <point x="208" y="323" type="curve" smooth="yes"/>
      <point x="177" y="177" type="line" smooth="yes"/>
      <point x="169" y="136"/>
      <point x="182" y="99"/>
      <point x="236" y="99" type="curve" smooth="yes"/>
      <point x="286" y="99"/>
      <point x="313" y="132"/>
      <point x="323" y="177" type="curve" smooth="yes"/>
    </contour>
    <contour>
      <point x="120" y="297" type="line"/>
      <point x="429" y="297" type="line"/>
      <point x="409" y="205" type="line"/>
      <point x="100" y="205" type="line"/>
    </contour>
  </outline>
</glyph>
<glyph name="uni0490" format="2">
  <advance width="387"/>
  <unicode hex="0490"/>
  <outline>
    <component base="Gamma"/>
    <contour>
      <point x="450.63" y="812" type="line"/>
      <point x="547.63" y="812" type="line"/>
      <point x="511.913" y="644" type="line"/>
      <point x="407.913" y="644" type="line"/>
      <point x="419.819" y="700" type="line"/>
    </contour>
  </outline>
</glyph>
<glyph name="uni0491" format="1">
  <advance width="319" height="962"/>
  <unicode hex="0491"/>
  <outline>
    <component base="uni0433"/>
    <contour>
      <point x="340" y="612" type="line"/>
      <point x="438" y="612" type="line"/>
      <point x="403" y="446" type="line"/>
      <point x="299" y="446" type="line"/>
      <point x="310" y="500" type="line"/>
    </contour>
  </outline>
</glyph>
<glyph name="uni0494" format="1">
  <advance width="446" height="962"/>
  <unicode hex="0494"/>
  <outline>
    <component base="Gamma"/>
    <contour>
      <point x="360" y="508" type="curve" smooth="yes"/>
      <point x="439" y="508"/>
      <point x="513" y="472"/>
      <point x="486" y="343" type="curve" smooth="yes"/>
      <point x="440" y="129" type="line" smooth="yes"/>
      <point x="420" y="35"/>
      <point x="359" y="-14"/>
      <point x="257" y="-16" type="curve"/>
      <point x="242" y="72" type="line"/>
      <point x="288" y="72"/>
      <point x="319" y="84"/>
      <point x="328" y="129" type="curve" smooth="yes"/>
      <point x="373" y="341" type="line" smooth="yes"/>
      <point x="382" y="379"/>
      <point x="362" y="407"/>
      <point x="319" y="407" type="curve" smooth="yes"/>
      <point x="296" y="407"/>
      <point x="268" y="400"/>
      <point x="233" y="384" type="curve"/>
      <point x="252" y="475" type="line"/>
      <point x="272" y="487"/>
      <point x="318" y="508"/>
    </contour>
  </outline>
</glyph>
<glyph name="uni0497" format="2">
  <advance width="533"/>
  <unicode hex="0497"/>
  <outline>
    <component base="uni0436"/>
    <contour>
      <point x="418" y="110" type="line"/>
      <point x="542" y="110" type="line"/>
      <point x="492" y="-125" type="line"/>
      <point x="400" y="-125" type="line"/>
      <point x="406" y="0" type="line"/>
      <point x="395" y="0" type="line"/>
    </contour>
  </outline>
</glyph>
<glyph name="uni049A" format="1">
  <advance width="516" height="962"/>
  <unicode hex="049A"/>
  <outline>
    <component base="K"/>
    <contour>
      <point x="399" y="110" type="line"/>
      <point x="523" y="110" type="line"/>
      <point x="473" y="-125" type="line"/>
      <point x="381" y="-125" type="line"/>
      <point x="387" y="0" type="line"/>
      <point x="376" y="0" type="line"/>
    </contour>
  </outline>
</glyph>
<glyph name="uni04A2" format="1">
  <advance width="605" height="962"/>
  <unicode hex="04A2"/>
  <outline>
    <component base="H"/>
    <contour>
      <point x="440" y="110" type="line"/>
      <point x="604" y="110" type="line"/>
      <point x="554" y="-125" type="line"/>
      <point x="462" y="-125" type="line"/>
      <point x="468" y="0" type="line"/>
      <point x="417" y="0" type="line"/>
    </contour>
  </outline>
</glyph>
<glyph name="uni04A4" format="2">
  <advance width="613" height="962"/>
  <unicode hex="04A4"/>
  <outline>
    <component base="H"/>
    <contour>
      <point x="563" y="700" type="line"/>
      <point x="750" y="700" type="line"/>
      <point x="727" y="595" type="line"/>
      <point x="596" y="593" type="line"/>
      <point x="540" y="593" type="line"/>
    </contour>
  </outline>
</glyph>
<glyph name="uni04B2" format="2">
  <advance width="629" height="962"/>
  <unicode hex="04B2"/>
  <outline>
    <contour>
      <point x="512" y="110" type="line"/>
      <point x="636" y="110" type="line"/>
      <point x="586" y="-125" type="line"/>
      <point x="494" y="-125" type="line"/>
      <point x="500" y="0" type="line"/>
      <point x="489" y="0" type="line"/>
    </contour>
    <contour>
      <point x="412" y="465" type="line"/>
      <point x="605" y="700" type="line"/>
      <point x="754" y="700" type="line"/>
      <point x="462" y="343" type="line"/>
      <point x="603" y="0" type="line"/>
      <point x="466" y="0" type="line"/>
      <point x="370" y="233" type="line"/>
      <point x="179" y="0" type="line"/>
      <point x="30" y="0" type="line"/>
      <point x="320" y="352" type="line"/>
      <point x="178" y="700" type="line"/>
      <point x="316" y="700" type="line"/>
    </contour>
  </outline>
</glyph>
<glyph name="uni04D8" format="2">
  <advance width="490"/>
  <unicode hex="04D8"/>
  <outline>
    <contour>
      <point x="415" y="711" type="curve" smooth="yes"/>
      <point x="525" y="711"/>
      <point x="593" y="642"/>
      <point x="565" y="510" type="curve" smooth="yes"/>
      <point x="496" y="184" type="line" smooth="yes"/>
      <point x="468" y="54"/>
      <point x="360" y="-13"/>
      <point x="242" y="-13" type="curve" smooth="yes"/>
      <point x="116" y="-13"/>
      <point x="48" y="61"/>
      <point x="74" y="184" type="curve" smooth="yes"/>
      <point x="106" y="333" type="line"/>
      <point x="420" y="350" type="line"/>
      <point x="455" y="513" type="line" smooth="yes"/>
      <point x="468" y="575"/>
      <point x="438" y="600"/>
      <point x="372" y="600" type="curve" smooth="yes"/>
      <point x="341" y="600"/>
      <point x="302" y="593"/>
      <point x="274" y="583" type="curve"/>
      <point x="264" y="676" type="line"/>
      <point x="317" y="700"/>
      <point x="367" y="711"/>
    </contour>
    <contour>
      <point x="266" y="94" type="curve" smooth="yes"/>
      <point x="333" y="94"/>
      <point x="374" y="133"/>
      <point x="388" y="197" type="curve" smooth="yes"/>
      <point x="399" y="249" type="line"/>
      <point x="196" y="236" type="line"/>
      <point x="188" y="199" type="line" smooth="yes"/>
      <point x="175" y="136"/>
      <point x="203" y="94"/>
    </contour>
  </outline>
</glyph>
<glyph name="uni04F6" format="1">
  <advance width="379" height="962"/>
  <unicode hex="04F6"/>
  <outline>
    <component base="Gamma"/>
    <contour>
      <point x="121" y="110" type="line"/>
      <point x="285" y="110" type="line"/>
      <point x="235" y="-125" type="line"/>
      <point x="143" y="-125" type="line"/>
      <point x="149" y="0" type="line"/>
      <point x="98" y="0" type="line"/>
    </contour>
  </outline>
</glyph>
<glyph name="uni1E9E" format="2">
  <advance width="577"/>
  <unicode hex="1E9E"/>
  <outline>
    <contour>
      <point x="190" y="700" type="line"/>
      <point x="647" y="700" type="line"/>
      <point x="624" y="590" type="line"/>
      <point x="459" y="401" type="line"/>
      <point x="464" y="399" type="line" smooth="yes"/>
      <point x="553.775" y="363.09"/>
      <point x="617" y="293"/>
      <point x="595" y="190" type="curve" smooth="yes"/>
      <point x="570" y="72"/>
      <point x="478" y="-12"/>
      <point x="346" y="-12" type="curve" smooth="yes"/>
      <point x="288.74" y="-12"/>
      <point x="233.487" y="10.0813"/>
      <point x="195.02" y="49.3176" type="curve"/>
      <point x="265.634" y="128.871" type="line"/>
      <point x="289.106" y="104.373"/>
      <point x="316.689" y="96"/>
      <point x="352" y="96" type="curve" smooth="yes"/>
      <point x="408" y="96"/>
      <point x="459" y="126"/>
      <point x="477" y="188" type="curve" smooth="yes"/>
      <point x="499" y="264"/>
      <point x="430" y="307"/>
      <point x="363" y="307" type="curve" smooth="yes"/>
      <point x="254" y="307" type="line"/>
      <point x="491" y="590" type="line"/>
      <point x="278" y="590" type="line"/>
      <point x="153" y="0" type="line"/>
      <point x="41" y="0" type="line"/>
    </contour>
  </outline>
</glyph>
<glyph name="uni2014" format="2">
  <advance width="700"/>
  <unicode hex="2014"/>
  <outline>
    <contour>
      <point x="171" y="306.857" type="line"/>
      <point x="193.812" y="414.156" type="line"/>
      <point x="693.706" y="414.156" type="line"/>
      <point x="670.893" y="306.857" type="line"/>
    </contour>
  </outline>
</glyph>
<glyph name="quoteleft" format="2">
  <advance width="177"/>
  <unicode hex="2018"/>
  <outline>
    <contour>
      <point x="273" y="710" type="line"/>
      <point x="259" y="693"/>
      <point x="249" y="672"/>
      <point x="241" y="653" type="curve"/>
      <point x="266" y="645"/>
      <point x="280" y="621"/>
      <point x="274" y="595" type="curve" smooth="yes"/>
      <point x="267" y="561"/>
      <point x="235" y="534"/>
      <point x="202" y="534" type="curve" smooth="yes"/>
      <point x="168" y="534"/>
      <point x="148" y="561"/>
      <point x="155" y="595" type="curve" smooth="yes"/>
      <point x="174" y="686"/>
      <point x="251" y="727"/>
      <point x="251" y="727" type="curve"/>
    </contour>
  </outline>
</glyph>
<glyph name="perthousand" format="1">
  <advance width="1073" height="962"/>
  <unicode hex="2030"/>
  <outline>
    <contour>
      <point x="35" y="0" type="line"/>
      <point x="723" y="700" type="line"/>
      <point x="840" y="700" type="line"/>
      <point x="150" y="0" type="line"/>
    </contour>
    <contour>
      <point x="340" y="715" type="curve" smooth="yes"/>
      <point x="420" y="715"/>
      <point x="472" y="650"/>
      <point x="454" y="570" type="curve" smooth="yes"/>
      <point x="437" y="489"/>
      <point x="358" y="423"/>
      <point x="278" y="423" type="curve" smooth="yes"/>
      <point x="197" y="423"/>
      <point x="146" y="489"/>
      <point x="163" y="570" type="curve" smooth="yes"/>
      <point x="180" y="650"/>
      <point x="259" y="715"/>
    </contour>
    <contour>
      <point x="320" y="622" type="curve" smooth="yes"/>
      <point x="292" y="622"/>
      <point x="262" y="598"/>
      <point x="256" y="570" type="curve" smooth="yes"/>
      <point x="250" y="541"/>
      <point x="269" y="517"/>
      <point x="298" y="517" type="curve" smooth="yes"/>
      <point x="327" y="517"/>
      <point x="355" y="541"/>
      <point x="361" y="570" type="curve" smooth="yes"/>
      <point x="367" y="598"/>
      <point x="349" y="622"/>
    </contour>
    <contour>
      <point x="608" y="278" type="curve" smooth="yes"/>
      <point x="690" y="278"/>
      <point x="740" y="213"/>
      <point x="723" y="132" type="curve" smooth="yes"/>
      <point x="706" y="51"/>
      <point x="628" y="-14"/>
      <point x="546" y="-14" type="curve" smooth="yes"/>
      <point x="466" y="-14"/>
      <point x="415" y="51"/>
      <point x="432" y="132" type="curve" smooth="yes"/>
      <point x="450" y="213"/>
      <point x="528" y="278"/>
    </contour>
    <contour>
      <point x="588" y="185" type="curve" smooth="yes"/>
      <point x="560" y="185"/>
      <point x="530" y="159"/>
      <point x="525" y="132" type="curve" smooth="yes"/>
      <point x="519" y="103"/>
      <point x="537" y="79"/>
      <point x="566" y="79" type="curve" smooth="yes"/>
      <point x="595" y="79"/>
      <point x="624" y="103"/>
      <point x="630" y="132" type="curve" smooth="yes"/>
      <point x="636" y="159"/>
      <point x="618" y="185"/>
    </contour>
    <contour>
      <point x="955" y="278" type="curve" smooth="yes"/>
      <point x="1035" y="278"/>
      <point x="1087" y="213"/>
      <point x="1070" y="132" type="curve" smooth="yes"/>
      <point x="1053" y="51"/>
      <point x="972" y="-14"/>
      <point x="893" y="-14" type="curve" smooth="yes"/>
      <point x="813" y="-14"/>
      <point x="761" y="51"/>
      <point x="778" y="132" type="curve" smooth="yes"/>
      <point x="795" y="213"/>
      <point x="875" y="278"/>
    </contour>
    <contour>
      <point x="935" y="185" type="curve" smooth="yes"/>
      <point x="904" y="185"/>
      <point x="877" y="159"/>
      <point x="872" y="132" type="curve" smooth="yes"/>
      <point x="866" y="103"/>
      <point x="882" y="79"/>
      <point x="913" y="79" type="curve" smooth="yes"/>
      <point x="942" y="79"/>
      <point x="971" y="103"/>
      <point x="977" y="132" type="curve" smooth="yes"/>
      <point x="982" y="159"/>
      <point x="965" y="185"/>
    </contour>
  </outline>
</glyph>
<glyph name="guilsinglright" format="2">
  <advance width="322" height="962"/>
  <unicode hex="203A"/>
  <outline>
    <contour>
      <point x="219" y="277" type="line"/>
      <point x="124" y="393" type="line"/>
      <point x="201" y="456" type="line"/>
      <point x="349" y="268" type="line"/>
      <point x="122" y="80" type="line"/>
      <point x="65" y="149" type="line"/>
    </contour>
  </outline>
</glyph>
<glyph name="fraction" format="2">
  <advance width="481" height="962"/>
  <unicode hex="2044"/>
  <outline>
    <contour>
      <point x="0" y="-115" type="line"/>
      <point x="526" y="819" type="line"/>
      <point x="633" y="819" type="line"/>
      <point x="107" y="-115" type="line"/>
    </contour>
  </outline>
</glyph>
<glyph name="Euro" format="2">
  <advance width="427"/>
  <unicode hex="20AC"/>
  <outline>
    <component base="C"/>
    <contour>
      <point x="79" y="377" type="line"/>
      <point x="102" y="483" type="line"/>
      <point x="460" y="483" type="line"/>
      <point x="437" y="377" type="line"/>
    </contour>
    <contour>
      <point x="47" y="225" type="line"/>
      <point x="69" y="330" type="line"/>
      <point x="427" y="330" type="line"/>
      <point x="405" y="225" type="line"/>
    </contour>
  </outline>
</glyph>
<glyph name="trademark" format="2">
  <advance width="430"/>
  <unicode hex="2122"/>
  <outline>
    <contour>
      <point x="275" y="655" type="line"/>
      <point x="245" y="515" type="line"/>
      <point x="197" y="515" type="line"/>
      <point x="227" y="655" type="line"/>
      <point x="164" y="655" type="line"/>
      <point x="173" y="700" type="line"/>
      <point x="404" y="700" type="line"/>
      <point x="420" y="593" type="line"/>
      <point x="481" y="700" type="line"/>
      <point x="543" y="700" type="line"/>
      <point x="504" y="515" type="line"/>
      <point x="461" y="515" type="line"/>
      <point x="486" y="633" type="line"/>
      <point x="419" y="515" type="line"/>
      <point x="387" y="515" type="line"/>
      <point x="372" y="633" type="line"/>
      <point x="347" y="515" type="line"/>
      <point x="300" y="515" type="line"/>
      <point x="330" y="655" type="line"/>
    </contour>
  </outline>
</glyph>
<glyph name="y_lower_alt" format="2">
  <advance width="497"/>
  <unicode hex="9998"/>
  <outline>
    <contour>
      <point x="83" y="-209" type="line"/>
      <point x="197" y="0" type="line"/>
      <point x="122" y="501" type="line"/>
      <point x="228" y="501" type="line"/>
      <point x="280" y="149" type="line"/>
      <point x="470" y="501" type="line"/>
      <point x="576" y="501" type="line"/>
      <point x="191" y="-209" type="line"/>
    </contour>
  </outline>
</glyph>
<glyph name="ff" format="1">
  <advance width="524" height="962"/>
  <unicode hex="FB00"/>
  <outline>
    <contour>
      <point x="596" y="590" type="line"/>
      <point x="585" y="595"/>
      <point x="575" y="597"/>
      <point x="565" y="597" type="curve" smooth="yes"/>
      <point x="532" y="597"/>
      <point x="510" y="573"/>
      <point x="501" y="530" type="curve" smooth="yes"/>
      <point x="495" y="501" type="line"/>
      <point x="583" y="501" type="line"/>
      <point x="536" y="397" type="line"/>
      <point x="471" y="397" type="line"/>
      <point x="386" y="0" type="line"/>
      <point x="276" y="0" type="line"/>
      <point x="382" y="502" type="line" smooth="yes"/>
      <point x="388" y="530"/>
      <point x="394" y="556"/>
      <point x="406" y="584" type="curve"/>
      <point x="397" y="595"/>
      <point x="375" y="600"/>
      <point x="355" y="600" type="curve" smooth="yes"/>
      <point x="319" y="600"/>
      <point x="280" y="589"/>
      <point x="264" y="526" type="curve" smooth="yes"/>
      <point x="259" y="501" type="line"/>
      <point x="346" y="501" type="line"/>
      <point x="300" y="397" type="line"/>
      <point x="237" y="397" type="line"/>
      <point x="153" y="0" type="line"/>
      <point x="39" y="0" type="line"/>
      <point x="148" y="512" type="line" smooth="yes"/>
      <point x="173" y="627"/>
      <point x="249" y="707"/>
      <point x="385" y="707" type="curve" smooth="yes"/>
      <point x="418" y="707"/>
      <point x="451" y="698"/>
      <point x="487" y="683" type="curve"/>
      <point x="512" y="697"/>
      <point x="547" y="704"/>
      <point x="572" y="704" type="curve" smooth="yes"/>
      <point x="598" y="704"/>
      <point x="622" y="699"/>
      <point x="646" y="692" type="curve"/>
    </contour>
  </outline>
</glyph>
<glyph name="fi" format="1">
  <advance width="418" height="962"/>
  <unicode hex="FB01"/>
  <outline>
    <contour>
      <point x="500" y="569" type="line"/>
      <point x="457" y="590"/>
      <point x="420" y="604"/>
      <point x="360" y="604" type="curve" smooth="yes"/>
      <point x="318" y="604"/>
      <point x="280" y="591"/>
      <point x="269" y="543" type="curve" smooth="yes"/>
      <point x="260" y="501" type="line"/>
      <point x="347" y="501" type="line"/>
      <point x="301" y="397" type="line"/>
      <point x="238" y="397" type="line"/>
      <point x="154" y="0" type="line"/>
      <point x="40" y="0" type="line"/>
      <point x="156" y="547" type="line" smooth="yes"/>
      <point x="179" y="656"/>
      <point x="254" y="710"/>
      <point x="354" y="710" type="curve" smooth="yes"/>
      <point x="437" y="710"/>
      <point x="484" y="687"/>
      <point x="520" y="666" type="curve"/>
    </contour>
    <contour>
      <point x="378" y="0" type="line"/>
      <point x="271" y="0" type="line"/>
      <point x="377" y="501" type="line"/>
      <point x="484" y="501" type="line"/>
    </contour>
  </outline>
</glyph>
<glyph name="fl" format="1">
  <advance width="420" height="962"/>
  <unicode hex="FB02"/>
  <outline>
    <contour>
      <point x="393" y="594" type="line"/>
      <point x="385" y="606"/>
      <point x="369" y="611"/>
      <point x="351" y="611" type="curve" smooth="yes"/>
      <point x="319" y="611"/>
      <point x="279" y="594"/>
      <point x="270" y="550" type="curve" smooth="yes"/>
      <point x="259" y="501" type="line"/>
      <point x="346" y="501" type="line"/>
      <point x="300" y="397" type="line"/>
      <point x="237" y="397" type="line"/>
      <point x="153" y="0" type="line"/>
      <point x="39" y="0" type="line"/>
      <point x="149" y="518" type="line" smooth="yes"/>
      <point x="173" y="628"/>
      <point x="246" y="710"/>
      <point x="383" y="710" type="curve" smooth="yes"/>
      <point x="427" y="710"/>
      <point x="468" y="703"/>
      <point x="523" y="687" type="curve"/>
      <point x="377" y="0" type="line"/>
      <point x="267" y="0" type="line"/>
    </contour>
  </outline>
</glyph>
<glyph name="commaturnedabovecomb" format="1">
  <advance width="267" height="962"/>
  <outline>
    <contour>
      <point x="320" y="728" type="line"/>
      <point x="308" y="711"/>
      <point x="298" y="688"/>
      <point x="292" y="669" type="curve"/>
      <point x="315" y="664"/>
      <point x="329" y="639"/>
      <point x="323" y="611" type="curve" smooth="yes"/>
      <point x="316" y="578"/>
      <point x="285" y="552"/>
      <point x="251" y="552" type="curve" smooth="yes"/>
      <point x="218" y="552"/>
      <point x="196" y="578"/>
      <point x="203" y="611" type="curve" smooth="yes"/>
      <point x="222" y="702"/>
      <point x="300" y="743"/>
      <point x="298" y="743" type="curve"/>
    </contour>
  </outline>
</glyph>
<glyph name="commaturnedbelowcomb" format="2">
  <advance width="267"/>
  <outline>
    <contour>
      <point x="51" y="-237" type="line"/>
      <point x="66" y="-219"/>
      <point x="73" y="-199"/>
      <point x="81" y="-178" type="curve"/>
      <point x="57" y="-172"/>
      <point x="43" y="-148"/>
      <point x="49" y="-120" type="curve" smooth="yes"/>
      <point x="55" y="-88"/>
      <point x="88" y="-61"/>
      <point x="121" y="-61" type="curve" smooth="yes"/>
      <point x="153" y="-61"/>
      <point x="174" y="-88"/>
      <point x="167" y="-120" type="curve" smooth="yes"/>
      <point x="148" y="-212"/>
      <point x="70" y="-254"/>
      <point x="71" y="-254" type="curve"/>
    </contour>
  </outline>
</glyph>
<glyph name="descendercomb" format="2">
  <advance width="250" height="962"/>
  <outline>
    <contour>
      <point x="80" y="16" type="line"/>
      <point x="168" y="7" type="line"/>
      <point x="168" y="3" type="line"/>
      <point x="205" y="-87" type="line" smooth="yes"/>
      <point x="240" y="-174"/>
      <point x="149" y="-254"/>
      <point x="64" y="-225" type="curve" smooth="yes"/>
      <point x="-34" y="-191" type="line"/>
      <point x="7" y="-119" type="line"/>
      <point x="102" y="-155" type="line" smooth="yes"/>
      <point x="125" y="-164"/>
      <point x="140" y="-142"/>
      <point x="133" y="-124" type="curve" smooth="yes"/>
      <point x="77" y="2" type="line"/>
    </contour>
  </outline>
</glyph>
<glyph name="gamma_gamma" format="2">
  <advance width="849"/>
  <outline>
    <component base="gamma" xOffset="329.5"/>
    <contour>
      <point x="560" y="501" type="line"/>
      <point x="270" y="-55" type="line" smooth="yes"/>
      <point x="226" y="-140"/>
      <point x="185" y="-203"/>
      <point x="76" y="-203" type="curve"/>
      <point x="63" y="-117" type="line"/>
      <point x="110" y="-117"/>
      <point x="131" y="-103"/>
      <point x="159" y="-51" type="curve" smooth="yes"/>
      <point x="204" y="33" type="line"/>
      <point x="175" y="43"/>
      <point x="141" y="74"/>
      <point x="137" y="159" type="curve" smooth="yes"/>
      <point x="120" y="501" type="line"/>
      <point x="247" y="501" type="line"/>
      <point x="235" y="161" type="line" smooth="yes"/>
      <point x="234" y="139"/>
      <point x="256" y="138"/>
      <point x="256" y="138" type="curve"/>
      <point x="444" y="501" type="line"/>
    </contour>
  </outline>
</glyph>
<glyph name="gamma_kappa" format="1">
  <advance width="904" height="962"/>
  <outline>
    <component base="kappa" xOffset="429.5"/>
    <contour>
      <point x="600" y="426" type="line"/>
      <point x="561" y="429"/>
      <point x="515" y="415"/>
      <point x="481" y="351" type="curve" smooth="yes"/>
      <point x="270" y="-55" type="line"/>
      <point x="226" y="-140"/>
      <point x="185" y="-203"/>
      <point x="76" y="-203" type="curve"/>
      <point x="63" y="-117" type="line"/>
      <point x="110" y="-117"/>
      <point x="131" y="-103"/>
      <point x="159" y="-51" type="curve" smooth="yes"/>
      <point x="204" y="33" type="line"/>
      <point x="175" y="43"/>
      <point x="141" y="74"/>
      <point x="137" y="159" type="curve" smooth="yes"/>
      <point x="120" y="501" type="line"/>
      <point x="247" y="501" type="line"/>
      <point x="235" y="161" type="line" smooth="yes"/>
      <point x="234" y="139"/>
      <point x="256" y="138"/>
      <point x="256" y="138" type="curve"/>
      <point x="380" y="382" type="line" smooth="yes"/>
      <point x="437" y="493"/>
      <point x="511" y="514"/>
      <point x="579" y="512" type="curve"/>
    </contour>
  </outline>
</glyph>
<glyph name="t_t" format="1">
  <advance width="554" height="962"/>
  <outline>
    <component base="t" xOffset="203"/>
    <contour>
      <point x="182" y="132" type="line" smooth="yes"/>
      <point x="172" y="87"/>
      <point x="197" y="75"/>
      <point x="243" y="75" type="curve"/>
      <point x="191" y="-13" type="line"/>
      <point x="90" y="-11"/>
      <point x="50" y="38"/>
      <point x="70" y="132" type="curve" smooth="yes"/>
      <point x="190" y="700" type="line"/>
      <point x="303" y="700" type="line"/>
      <point x="260" y="500" type="line"/>
      <point x="356" y="500" type="line"/>
      <point x="335" y="399" type="line"/>
      <point x="239" y="399" type="line"/>
    </contour>
  </outline>
</glyph>
<glyph name="tonoscomb" format="1">
  <advance width="267" height="962"/>
  <outline>
    <contour>
      <point x="351" y="673" type="curve" smooth="yes"/>
      <point x="277" y="598" type="line"/>
      <point x="232" y="598" type="line"/>
      <point x="288" y="714" type="line" smooth="yes"/>
      <point x="299" y="737"/>
      <point x="331" y="760"/>
      <point x="359" y="743" type="curve" smooth="yes"/>
      <point x="381" y="729"/>
      <point x="374" y="696"/>
    </contour>
  </outline>
</glyph>
